<svg width="235" height="221" viewBox="0 0 235 221" fill="none" xmlns="http://www.w3.org/2000/svg">
<g filter="url(#filter0_bddd_69_2)">
<rect x="9" y="3" width="217" height="203" fill="black" fill-opacity="0.1" shape-rendering="crispEdges"/>
<rect x="9" y="3" width="217" height="203" fill="white" fill-opacity="0.1" shape-rendering="crispEdges"/>
<path d="M98.1628 124.536V135H53.8108V124.056L79.8268 90.84H54.5788V80.28H97.3948V91.32L71.7628 124.536H98.1628ZM137.105 123H121.169L118.289 135H100.625L118.289 80.28H140.849L157.745 135H139.985L137.105 123ZM129.041 92.088L123.377 112.344H134.801L129.425 92.088H129.041ZM170.583 135.768C167.959 135.768 165.783 134.904 164.055 133.176C162.391 131.448 161.559 129.112 161.559 126.168C161.559 123.608 162.423 121.464 164.151 119.736C165.943 117.944 168.183 117.048 170.871 117.048C173.431 117.048 175.575 117.944 177.303 119.736C179.031 121.464 179.895 123.608 179.895 126.168C179.895 129.112 179.031 131.448 177.303 133.176C175.639 134.904 173.399 135.768 170.583 135.768Z" fill="white"/>
<rect x="9.5" y="3.5" width="216" height="202" stroke="url(#paint0_linear_69_2)" stroke-opacity="0.1" shape-rendering="crispEdges"/>
</g>
<defs>
<filter id="filter0_bddd_69_2" x="-31" y="-37" width="297" height="283" filterUnits="userSpaceOnUse" color-interpolation-filters="sRGB">
<feFlood flood-opacity="0" result="BackgroundImageFix"/>
<feGaussianBlur in="BackgroundImageFix" stdDeviation="20"/>
<feComposite in2="SourceAlpha" operator="in" result="effect1_backgroundBlur_69_2"/>
<feColorMatrix in="SourceAlpha" type="matrix" values="0 0 0 0 0 0 0 0 0 0 0 0 0 0 0 0 0 0 127 0" result="hardAlpha"/>
<feOffset dy="6"/>
<feGaussianBlur stdDeviation="4.5"/>
<feComposite in2="hardAlpha" operator="out"/>
<feColorMatrix type="matrix" values="0 0 0 0 0 0 0 0 0 0 0 0 0 0 0 0 0 0 0.6 0"/>
<feBlend mode="normal" in2="effect1_backgroundBlur_69_2" result="effect2_dropShadow_69_2"/>
<feColorMatrix in="SourceAlpha" type="matrix" values="0 0 0 0 0 0 0 0 0 0 0 0 0 0 0 0 0 0 127 0" result="hardAlpha"/>
<feOffset dy="2"/>
<feGaussianBlur stdDeviation="1.5"/>
<feComposite in2="hardAlpha" operator="out"/>
<feColorMatrix type="matrix" values="0 0 0 0 0 0 0 0 0 0 0 0 0 0 0 0 0 0 0.12 0"/>
<feBlend mode="normal" in2="effect2_dropShadow_69_2" result="effect3_dropShadow_69_2"/>
<feColorMatrix in="SourceAlpha" type="matrix" values="0 0 0 0 0 0 0 0 0 0 0 0 0 0 0 0 0 0 127 0" result="hardAlpha"/>
<feOffset dy="1"/>
<feGaussianBlur stdDeviation="0.5"/>
<feComposite in2="hardAlpha" operator="out"/>
<feColorMatrix type="matrix" values="0 0 0 0 0 0 0 0 0 0 0 0 0 0 0 0 0 0 0.04 0"/>
<feBlend mode="normal" in2="effect3_dropShadow_69_2" result="effect4_dropShadow_69_2"/>
<feBlend mode="normal" in="SourceGraphic" in2="effect4_dropShadow_69_2" result="shape"/>
</filter>
<linearGradient id="paint0_linear_69_2" x1="117.5" y1="3" x2="117.5" y2="206" gradientUnits="userSpaceOnUse">
<stop stop-color="white"/>
<stop offset="1" stop-color="white" stop-opacity="0"/>
</linearGradient>
</defs>
</svg>
