<svg width="100" height="100" viewBox="0 0 100 100" fill="none" xmlns="http://www.w3.org/2000/svg">
<rect width="100" height="100" rx="32" fill="white"/>
<path d="M74.729 36H73.879C72.828 36 71.838 36.49 71.199 37.324L62.499 48.701L53.799 37.324C53.162 36.49 52.171 36 51.121 36H50.271L61.242 50.346L50.036 65H50.886C51.937 65 52.927 64.51 53.565 63.676L62.5 51.992L71.435 63.676C72.073 64.51 73.063 65 74.114 65H74.964L63.758 50.346L74.729 36ZM46.289 59.242C43.735 63.123 38.707 65.112 33.9 63.358C29.671 61.815 27 57.611 27 53.109V52H39H50V47.866C50 41.361 45.182 35.666 38.705 35.057C31.273 34.358 25 40.21 25 47.5V53.073C25 58.444 28.215 63.437 33.269 65.256C39.872 67.632 46.817 64.086 49.165 58H48.527C47.616 58 46.789 58.481 46.289 59.242ZM27 47.5C27 41.71 31.71 37 37.5 37C43.29 37 48 41.71 48 47.5V50H27V47.5Z" fill="black"/>
</svg>
